<?xml version="1.0" encoding="UTF-8" standalone="no"?>
<svg
   xmlns:osb="http://www.openswatchbook.org/uri/2009/osb"
   xmlns:dc="http://purl.org/dc/elements/1.1/"
   xmlns:cc="http://creativecommons.org/ns#"
   xmlns:rdf="http://www.w3.org/1999/02/22-rdf-syntax-ns#"
   xmlns:svg="http://www.w3.org/2000/svg"
   xmlns="http://www.w3.org/2000/svg"
   xmlns:xlink="http://www.w3.org/1999/xlink"
   xmlns:sodipodi="http://sodipodi.sourceforge.net/DTD/sodipodi-0.dtd"
   xmlns:inkscape="http://www.inkscape.org/namespaces/inkscape"
   viewBox="0 0 48 48"
   id="svg2"
   version="1.1"
   inkscape:version="0.91 r13725"
   sodipodi:docname="fbmessenger.svg">
  <metadata
     id="metadata49">
    <rdf:RDF>
      <cc:Work
         rdf:about="">
        <dc:format>image/svg+xml</dc:format>
        <dc:type
           rdf:resource="http://purl.org/dc/dcmitype/StillImage" />
      </cc:Work>
    </rdf:RDF>
  </metadata>
  <sodipodi:namedview
     pagecolor="#ffffff"
     bordercolor="#666666"
     borderopacity="1"
     objecttolerance="10"
     gridtolerance="10"
     guidetolerance="10"
     inkscape:pageopacity="0"
     inkscape:pageshadow="2"
     inkscape:window-width="1920"
     inkscape:window-height="1024"
     id="namedview47"
     showgrid="false"
     inkscape:zoom="6.9532167"
     inkscape:cx="-38.279046"
     inkscape:cy="-2.4960718"
     inkscape:window-x="0"
     inkscape:window-y="30"
     inkscape:window-maximized="1"
     inkscape:current-layer="svg2"
     inkscape:snap-bbox="true"
     inkscape:snap-global="true"
     inkscape:object-paths="false" />
  <defs
     id="defs4">
    <linearGradient
       gradientTransform="matrix(0,-1,1,0,-1.5e-6,47.999998)"
       gradientUnits="userSpaceOnUse"
       x2="47"
       x1="1"
       id="fsd-6">
      <stop
         id="stop5633"
         style="stop-color:#66b7cc;stop-opacity:1" />
      <stop
         id="stop5635"
         style="stop-color:#75bed1;stop-opacity:1"
         offset="1" />
    </linearGradient>
    <linearGradient
       id="linearGradient5625">
      <stop
         style="stop-color:#000000;stop-opacity:1;"
         offset="0"
         id="stop5627" />
    </linearGradient>
    <linearGradient
       id="linearGradient5619"
       osb:paint="solid">
      <stop
         style="stop-color:#000000;stop-opacity:1;"
         offset="0"
         id="stop5621" />
    </linearGradient>
    <linearGradient
       inkscape:collect="always"
       id="linearGradient4179">
      <stop
         style="stop-color:#000000;stop-opacity:1;"
         offset="0"
         id="stop4181" />
      <stop
         style="stop-color:#000000;stop-opacity:0;"
         offset="1"
         id="stop4183" />
    </linearGradient>
    <linearGradient
       id="linearGradient5848"
       osb:paint="solid">
      <stop
         style="stop-color:#005dff;stop-opacity:1;"
         offset="0"
         id="stop5850" />
    </linearGradient>
    <linearGradient
       id="linearGradient4178"
       osb:paint="gradient">
      <stop
         style="stop-color:#005dff;stop-opacity:1"
         offset="0"
         id="stop4180" />
      <stop
         style="stop-color:#0071ff;stop-opacity:0;"
         offset="1"
         id="stop4182" />
    </linearGradient>
    <linearGradient
       id="linearGradient3764"
       x1="1"
       x2="47"
       gradientUnits="userSpaceOnUse"
       gradientTransform="matrix(0,-1,1,0,-1.5e-6,47.999998)">
      <stop
         style="stop-color:#66b7cc;stop-opacity:1"
         id="stop7" />
      <stop
         offset="1"
         style="stop-color:#75bed1;stop-opacity:1"
         id="stop9" />
    </linearGradient>
    <linearGradient
       inkscape:collect="always"
       xlink:href="#linearGradient4179"
       id="linearGradient4185"
       x1="7.53"
       y1="27.2655"
       x2="46.999"
       y2="27.2655"
       gradientUnits="userSpaceOnUse" />
    <linearGradient
       inkscape:collect="always"
       xlink:href="#linearGradient4178"
       id="linearGradient5629"
       x1="1"
       y1="24"
       x2="47"
       y2="24"
       gradientUnits="userSpaceOnUse" />
    <linearGradient
       inkscape:collect="always"
       xlink:href="#linearGradient4178"
       id="linearGradient5641"
       gradientUnits="userSpaceOnUse"
       x1="25.305298"
       y1="28.746004"
       x2="51.746006"
       y2="-16.988224" />
  </defs>
  <g
     id="g11">
    <path
       d="m 36.31 5 c 5.859 4.062 9.688 10.831 9.688 18.5 c 0 12.426 -10.07 22.5 -22.5 22.5 c -7.669 0 -14.438 -3.828 -18.5 -9.688 c 1.037 1.822 2.306 3.499 3.781 4.969 c 4.085 3.712 9.514 5.969 15.469 5.969 c 12.703 0 23 -10.298 23 -23 c 0 -5.954 -2.256 -11.384 -5.969 -15.469 c -1.469 -1.475 -3.147 -2.744 -4.969 -3.781 z m 4.969 3.781 c 3.854 4.113 6.219 9.637 6.219 15.719 c 0 12.703 -10.297 23 -23 23 c -6.081 0 -11.606 -2.364 -15.719 -6.219 c 4.16 4.144 9.883 6.719 16.219 6.719 c 12.703 0 23 -10.298 23 -23 c 0 -6.335 -2.575 -12.06 -6.719 -16.219 z"
       style="opacity:0.05"
       id="path13" />
    <path
       d="m 41.28 8.781 c 3.712 4.085 5.969 9.514 5.969 15.469 c 0 12.703 -10.297 23 -23 23 c -5.954 0 -11.384 -2.256 -15.469 -5.969 c 4.113 3.854 9.637 6.219 15.719 6.219 c 12.703 0 23 -10.298 23 -23 c 0 -6.081 -2.364 -11.606 -6.219 -15.719 z"
       style="opacity:0.1"
       id="path15" />
    <path
       d="m 31.25 2.375 c 8.615 3.154 14.75 11.417 14.75 21.13 c 0 12.426 -10.07 22.5 -22.5 22.5 c -9.708 0 -17.971 -6.135 -21.12 -14.75 a 23 23 0 0 0 44.875 -7 a 23 23 0 0 0 -16 -21.875 z"
       style="opacity:0.2"
       id="path17" />
  </g>
  <g
     style="fill:url(#linearGradient5629);fill-opacity:1"
     id="g4160">
    <path
       d="M 24,1 C 36.703,1 47,11.297 47,24 47,36.703 36.703,47 24,47 11.297,47 1,36.703 1,24 1,11.297 11.297,1 24,1 Z"
       style="fill:url(#linearGradient5641);fill-opacity:1;fill-rule:nonzero"
       id="path21"
       inkscape:connector-curvature="0" />
  </g>
  <g
     id="g23">
    <g
       id="g25">
      <g
         transform="translate(1,1)"
         id="g27">
        <g
           style="opacity:0.1"
           id="g29">
          <!-- color: #75bed1 -->
          <g
             id="g31">
            <path
               d="m 21 24 l -9 4.703 l 9 -9.703 l 5.5 5 l 9.5 -4.18 l -9.5 9.18 m -5.5 -5"
               style="fill:#000;fill-opacity:1;stroke:none;fill-rule:nonzero"
               id="path33" />
          </g>
        </g>
      </g>
    </g>
  </g>
  <g
     id="g35">
    <g
       id="g37">
      <!-- color: #75bed1 -->
      <g
         id="g39">
        <g
           id="g4156"
           style="fill:#ffffff;fill-opacity:0.94117647">
          <path
             id="path41"
             style="fill:#ffffff;fill-opacity:0.94117647;stroke:none;fill-rule:nonzero"
             d="m 21 24 l -9 4.703 l 9 -9.703 l 5.5 5 l 9.5 -4.18 l -9.5 9.18 m -5.5 -5" />
        </g>
      </g>
    </g>
  </g>
  <g
     id="g43"
     style="fill:url(#linearGradient4185);fill-opacity:1">
    <path
       d="m 40.03 7.531 c 3.712 4.084 5.969 9.514 5.969 15.469 0 12.703 -10.297 23 -23 23 c -5.954 0 -11.384 -2.256 -15.469 -5.969 4.178 4.291 10.01 6.969 16.469 6.969 c 12.703 0 23 -10.298 23 -23 0 -6.462 -2.677 -12.291 -6.969 -16.469 z"
       style="opacity:0.1;fill:url(#linearGradient4185);fill-opacity:1"
       id="path45" />
  </g>
  <path
     style="fill:#005dff;fill-opacity:1;fill-rule:evenodd;stroke:#005dff;stroke-width:1.13420749px;stroke-linecap:butt;stroke-linejoin:miter;stroke-opacity:1"
     d="m 8.3303022,33.882005 -3.516623,12.862833 13.2225018,-3.972345 0,0 -0.140665,0.189159 z"
     id="path5711"
     inkscape:connector-curvature="0" />
</svg>
