<?xml version="1.0" encoding="UTF-8" standalone="no"?>
<svg
   xmlns:dc="http://purl.org/dc/elements/1.1/"
   xmlns:cc="http://creativecommons.org/ns#"
   xmlns:rdf="http://www.w3.org/1999/02/22-rdf-syntax-ns#"
   xmlns:svg="http://www.w3.org/2000/svg"
   xmlns="http://www.w3.org/2000/svg"
   xmlns:xlink="http://www.w3.org/1999/xlink"
   xmlns:sodipodi="http://sodipodi.sourceforge.net/DTD/sodipodi-0.dtd"
   xmlns:inkscape="http://www.inkscape.org/namespaces/inkscape"
   id="svg3049"
   height="128"
   width="128"
   version="1.1"
   inkscape:version="0.91 r13725"
   sodipodi:docname="google-keep.svg">
  <sodipodi:namedview
     pagecolor="#ffffff"
     bordercolor="#666666"
     borderopacity="1"
     objecttolerance="10"
     gridtolerance="10"
     guidetolerance="10"
     inkscape:pageopacity="0"
     inkscape:pageshadow="2"
     inkscape:window-width="1920"
     inkscape:window-height="974"
     id="namedview46"
     showgrid="false"
     showguides="false"
     inkscape:zoom="6.3527052"
     inkscape:cx="108.99417"
     inkscape:cy="35.158465"
     inkscape:window-x="1024"
     inkscape:window-y="24"
     inkscape:window-maximized="1"
     inkscape:current-layer="svg3049" />
  <defs
     id="defs3051">
    <linearGradient
       id="linearGradient4476">
      <stop
         id="stop4478"
         style="stop-color:#ffca26;stop-opacity:1"
         offset="0" />
      <stop
         id="stop4480"
         style="stop-color:#f8b800;stop-opacity:1"
         offset="0.26238" />
      <stop
         id="stop4482"
         style="stop-color:#c08802;stop-opacity:1"
         offset="0.704952" />
      <stop
         id="stop4484"
         style="stop-color:#c28e00;stop-opacity:1"
         offset="1" />
    </linearGradient>
    <linearGradient
       inkscape:collect="always"
       id="linearGradient4468">
      <stop
         style="stop-color:#fada80;stop-opacity:1"
         offset="0"
         id="stop4470" />
      <stop
         style="stop-color:#eba905;stop-opacity:1"
         offset="1"
         id="stop4472" />
    </linearGradient>
    <linearGradient
       inkscape:collect="always"
       id="linearGradient4312">
      <stop
         style="stop-color:#000000;stop-opacity:0.21568628"
         offset="0"
         id="stop4314" />
      <stop
         style="stop-color:#000000;stop-opacity:0;"
         offset="1"
         id="stop4316" />
    </linearGradient>
    <linearGradient
       inkscape:collect="always"
       id="linearGradient4298">
      <stop
         style="stop-color:#000000;stop-opacity:0.21568628"
         offset="0"
         id="stop4300" />
      <stop
         style="stop-color:#000000;stop-opacity:0;"
         offset="1"
         id="stop4302" />
    </linearGradient>
    <linearGradient
       id="linearGradient4272">
      <stop
         id="stop4274"
         style="stop-color:#90dbec;stop-opacity:1"
         offset="0" />
      <stop
         id="stop4280"
         style="stop-color:#2b63a0;stop-opacity:1"
         offset="1" />
    </linearGradient>
    <linearGradient
       gradientTransform="matrix(2.7297298,0,0,2.7297298,-1.5135175,1.488319)"
       gradientUnits="userSpaceOnUse"
       xlink:href="#linearGradient3924"
       id="linearGradient4136"
       y2="43"
       x2="23.99999"
       y1="4.999989"
       x1="23.99999" />
    <linearGradient
       id="linearGradient3924">
      <stop
         offset="0"
         style="stop-color:#ffffff;stop-opacity:1"
         id="stop3926" />
      <stop
         offset="0.06316455"
         style="stop-color:#ffffff;stop-opacity:0.23529412"
         id="stop3928" />
      <stop
         offset="0.95056331"
         style="stop-color:#ffffff;stop-opacity:0.15686275"
         id="stop3930" />
      <stop
         offset="1"
         style="stop-color:#ffffff;stop-opacity:0.39215687"
         id="stop3932" />
    </linearGradient>
    <radialGradient
       gradientTransform="matrix(2.003784,0,0,1.4,27.98813,-17.4)"
       gradientUnits="userSpaceOnUse"
       xlink:href="#linearGradient3688-166-749-5"
       id="radialGradient4093"
       fy="43.5"
       fx="4.9929786"
       r="2.5"
       cy="43.5"
       cx="4.9929786" />
    <linearGradient
       id="linearGradient3688-166-749-5">
      <stop
         offset="0"
         style="stop-color:#181818;stop-opacity:1"
         id="stop2883-0" />
      <stop
         offset="1"
         style="stop-color:#181818;stop-opacity:0"
         id="stop2885-5" />
    </linearGradient>
    <radialGradient
       gradientTransform="matrix(2.003784,0,0,1.4,-20.01187,-104.4)"
       gradientUnits="userSpaceOnUse"
       xlink:href="#linearGradient3688-464-309-8"
       id="radialGradient4095"
       fy="43.5"
       fx="4.9929786"
       r="2.5"
       cy="43.5"
       cx="4.9929786" />
    <linearGradient
       id="linearGradient3688-464-309-8">
      <stop
         offset="0"
         style="stop-color:#181818;stop-opacity:1"
         id="stop2889-9" />
      <stop
         offset="1"
         style="stop-color:#181818;stop-opacity:0"
         id="stop2891-4" />
    </linearGradient>
    <linearGradient
       gradientUnits="userSpaceOnUse"
       xlink:href="#linearGradient3702-501-757-0"
       id="linearGradient4097"
       y2="39.999443"
       x2="25.058096"
       y1="47.027729"
       x1="25.058096" />
    <linearGradient
       id="linearGradient3702-501-757-0">
      <stop
         offset="0"
         style="stop-color:#181818;stop-opacity:0"
         id="stop2895-0" />
      <stop
         offset="0.5"
         style="stop-color:#181818;stop-opacity:1"
         id="stop2897-2" />
      <stop
         offset="1"
         style="stop-color:#181818;stop-opacity:0"
         id="stop2899-6" />
    </linearGradient>
    <linearGradient
       id="linearGradient3811">
      <stop
         offset="0"
         style="stop-color:#000000;stop-opacity:1"
         id="stop3813" />
      <stop
         offset="1"
         style="stop-color:#000000;stop-opacity:0"
         id="stop3815" />
    </linearGradient>
    <radialGradient
       gradientTransform="matrix(1.5563924,0,0,0.16978827,70.270355,102.1321)"
       gradientUnits="userSpaceOnUse"
       xlink:href="#linearGradient3811"
       id="radialGradient6276"
       fy="93.467628"
       fx="-4.0287771"
       r="35.338131"
       cy="93.467628"
       cx="-4.0287771" />
    <radialGradient
       cx="7.8500957"
       cy="9.9571075"
       r="12.671875"
       fx="7.3198657"
       fy="9.9571075"
       id="radialGradient5521-1"
       xlink:href="#linearGradient4476"
       gradientUnits="userSpaceOnUse"
       gradientTransform="matrix(0,15.631225,-30.794253,0,372.81652,-140.2176)" />
    <linearGradient
       id="linearGradient2867-449-88-871-390-598-476-591-434-148-57-177-3-8">
      <stop
         offset="0"
         style="stop-color:#fff6da;stop-opacity:1"
         id="stop3750-8-9" />
      <stop
         offset="0.26238"
         style="stop-color:#ffc82e;stop-opacity:1"
         id="stop3752-3-2" />
      <stop
         offset="0.704952"
         style="stop-color:#eaa702;stop-opacity:1"
         id="stop3754-7-2" />
      <stop
         offset="1"
         style="stop-color:#cf9800;stop-opacity:1"
         id="stop3756-9-3" />
    </linearGradient>
    <linearGradient
       inkscape:collect="always"
       xlink:href="#linearGradient4298"
       id="linearGradient4304"
       x1="97.647026"
       y1="103.54795"
       x2="97.578606"
       y2="32.860023"
       gradientUnits="userSpaceOnUse"
       gradientTransform="translate(-34.045611,-1.1540913)" />
    <linearGradient
       inkscape:collect="always"
       xlink:href="#linearGradient4312"
       id="linearGradient4318"
       x1="63.889938"
       y1="102.10533"
       x2="64.01387"
       y2="31.417412"
       gradientUnits="userSpaceOnUse" />
    <radialGradient
       cx="7.8500957"
       cy="9.9571075"
       r="12.671875"
       fx="7.3198657"
       fy="9.9571075"
       id="radialGradient5521-1-6"
       xlink:href="#linearGradient2867-449-88-871-390-598-476-591-434-148-57-177-3-8"
       gradientUnits="userSpaceOnUse"
       gradientTransform="matrix(0,15.631225,-30.794253,0,372.81652,-140.2176)" />
    <linearGradient
       inkscape:collect="always"
       xlink:href="#linearGradient4468"
       id="linearGradient4474"
       x1="86.875175"
       y1="90.53862"
       x2="115.69939"
       y2="118.86262"
       gradientUnits="userSpaceOnUse" />
  </defs>
  <metadata
     id="metadata3054">
    <rdf:RDF>
      <cc:Work
         rdf:about="">
        <dc:format>image/svg+xml</dc:format>
        <dc:type
           rdf:resource="http://purl.org/dc/dcmitype/StillImage" />
        <dc:title />
      </cc:Work>
    </rdf:RDF>
  </metadata>
  <path
     d="m 119,118.00181 a 55,6 0 0 1 -109.9999975,0 55,6 0 1 1 109.9999975,0 z"
     id="path3041"
     style="color:#000000;display:inline;overflow:visible;visibility:visible;opacity:0.2;fill:url(#radialGradient6276);fill-opacity:1;fill-rule:nonzero;stroke:none;stroke-width:1;marker:none;enable-background:accumulate" />
  <g
     transform="matrix(2.0782168,0,0,0.55555607,1.6871222,94.890689)"
     id="g2036"
     style="display:inline">
    <g
       transform="matrix(1.052632,0,0,1.285713,-1.263158,-13.42854)"
       id="g3712"
       style="opacity:0.4">
      <rect
         width="5"
         height="7"
         x="38"
         y="40"
         id="rect2801"
         style="fill:url(#radialGradient4093);fill-opacity:1;stroke:none" />
      <rect
         width="5"
         height="7"
         x="-10"
         y="-47"
         transform="scale(-1,-1)"
         id="rect3696"
         style="fill:url(#radialGradient4095);fill-opacity:1;stroke:none" />
      <rect
         width="28"
         height="7.0000005"
         x="10"
         y="40"
         id="rect3700"
         style="fill:url(#linearGradient4097);fill-opacity:1;stroke:none" />
    </g>
  </g>
  <path
     style="color:#000000;display:inline;overflow:visible;visibility:visible;fill:url(#radialGradient5521-1);fill-opacity:1;fill-rule:nonzero;stroke:none;stroke-width:0.99999994;marker:none;enable-background:accumulate;clip-rule:nonzero;opacity:1;isolation:auto;mix-blend-mode:normal;color-interpolation:sRGB;color-interpolation-filters:linearRGB;solid-color:#000000;solid-opacity:1;stroke-linecap:butt;stroke-linejoin:miter;stroke-miterlimit:4;stroke-dasharray:none;stroke-dashoffset:0;stroke-opacity:1;filter-blend-mode:normal;filter-gaussianBlur-deviation:0;color-rendering:auto;image-rendering:auto;shape-rendering:auto;text-rendering:auto"
     d="M 18.554688 15.501953 C 15.200472 15.501953 12.5 18.202425 12.5 21.556641 L 12.5 112.44727 C 12.5 115.80148 15.200472 118.50195 18.554688 118.50195 L 86.675781 118.50195 C 86.733409 118.43947 86.751827 118.35755 86.8125 118.29688 L 115.5 89.611328 L 115.5 21.556641 C 115.5 18.202425 112.79953 15.501953 109.44531 15.501953 L 18.554688 15.501953 z "
     id="rect5505-21-3" />
  <path
     style="opacity:0.5;fill:none;stroke:url(#linearGradient4136);stroke-width:0.99999994;stroke-linecap:round;stroke-linejoin:round;stroke-miterlimit:4;stroke-dasharray:none;stroke-dashoffset:0;stroke-opacity:1"
     d="M 18.5 16.501953 C 15.73 16.501953 13.5 18.731953 13.5 21.501953 L 13.5 112.50195 C 13.5 115.27195 15.73 117.50195 18.5 117.50195 L 87.556641 117.50195 L 114.5 90.560547 L 114.5 21.501953 C 114.5 18.731953 112.27 16.501953 109.5 16.501953 L 18.5 16.501953 z "
     id="rect6741-7" />
  <path
     style="color:#000000;display:inline;overflow:visible;visibility:visible;opacity:0.4;fill:#000000;stroke:#004264;stroke-width:1;stroke-linecap:round;stroke-linejoin:round;stroke-miterlimit:4;stroke-dasharray:none;stroke-dashoffset:0;stroke-opacity:1;marker:none;enable-background:accumulate;clip-rule:nonzero;isolation:auto;mix-blend-mode:normal;color-interpolation:sRGB;color-interpolation-filters:linearRGB;solid-color:#000000;solid-opacity:1;fill-opacity:0;fill-rule:nonzero;filter-blend-mode:normal;filter-gaussianBlur-deviation:0;color-rendering:auto;image-rendering:auto;shape-rendering:auto;text-rendering:auto"
     d="M 18.554688 15.501953 C 15.200472 15.501953 12.5 18.202425 12.5 21.556641 L 12.5 112.44727 C 12.5 115.80148 15.200472 118.50195 18.554688 118.50195 L 86.675781 118.50195 C 86.733409 118.43947 86.751827 118.35755 86.8125 118.29688 L 115.5 89.611328 L 115.5 21.556641 C 115.5 18.202425 112.79953 15.501953 109.44531 15.501953 L 18.554688 15.501953 z "
     id="rect5505-21-3-1" />
  <path
     style="opacity:1;fill:#2b63a0;fill-opacity:0;fill-rule:nonzero;stroke:url(#linearGradient4304);stroke-width:2;stroke-linejoin:round;stroke-miterlimit:4;stroke-dasharray:none;stroke-opacity:1"
     d="m 63.99999,31.828957 a 24.999994,24.999994 0 0 0 -25,25 24.999994,24.999994 0 0 0 12,21.328125 l 0,18.904294 5,0 0,5.113284 15.999999,0 0,-5.113284 5,0 0,-18.916013 a 24.999994,24.999994 0 0 0 11.999998,-21.316406 24.999994,24.999994 0 0 0 -24.999997,-25 z m 0,6 a 18.999994,18.999994 0 0 1 1.896484,0.0957 18.999994,18.999994 0 0 1 1.878905,0.283203 18.999994,18.999994 0 0 1 1.83985,0.46875 18.999994,18.999994 0 0 1 1.7832,0.652344 18.999994,18.999994 0 0 1 1.71094,0.826172 18.999994,18.999994 0 0 1 1.61914,0.992188 18.999994,18.999994 0 0 1 1.51172,1.15039 18.999994,18.999994 0 0 1 1.38867,1.292969 18.999994,18.999994 0 0 1 1.2539,1.427734 18.999994,18.999994 0 0 1 1.10547,1.544922 18.999994,18.999994 0 0 1 0.94532,1.646485 18.999994,18.999994 0 0 1 0.77539,1.734374 18.999994,18.999994 0 0 1 0.59765,1.802735 18.999994,18.999994 0 0 1 0.41602,1.853515 18.999994,18.999994 0 0 1 0.23047,1.884766 18.999994,18.999994 0 0 1 0.0469,1.34375 18.999994,18.999994 0 0 1 -0.0957,1.896484 18.999994,18.999994 0 0 1 -0.28321,1.878907 18.999994,18.999994 0 0 1 -0.46875,1.839843 18.999994,18.999994 0 0 1 -0.65234,1.783204 18.999994,18.999994 0 0 1 -0.82617,1.710937 18.999994,18.999994 0 0 1 -0.99219,1.619141 18.999994,18.999994 0 0 1 -1.15039,1.511718 18.999994,18.999994 0 0 1 -1.29297,1.388672 18.999994,18.999994 0 0 1 -1.42773,1.253907 18.999994,18.999994 0 0 1 -1.54493,1.105468 18.999994,18.999994 0 0 1 -1.64648,0.945313 18.999994,18.999994 0 0 1 -1.61914,0.724609 l 0,5.746094 -14.000001,0 0,-5.757813 a 18.999994,18.999994 0 0 1 -0.398438,-0.146484 18.999994,18.999994 0 0 1 -1.710937,-0.826172 18.999994,18.999994 0 0 1 -1.619141,-0.992187 18.999994,18.999994 0 0 1 -1.511718,-1.150391 18.999994,18.999994 0 0 1 -1.388672,-1.292969 18.999994,18.999994 0 0 1 -1.253906,-1.427734 18.999994,18.999994 0 0 1 -1.105469,-1.544922 18.999994,18.999994 0 0 1 -0.945313,-1.646484 18.999994,18.999994 0 0 1 -0.77539,-1.734375 18.999994,18.999994 0 0 1 -0.597657,-1.802735 18.999994,18.999994 0 0 1 -0.416015,-1.853515 18.999994,18.999994 0 0 1 -0.230469,-1.884766 18.999994,18.999994 0 0 1 -0.04687,-1.34375 18.999994,18.999994 0 0 1 0.0957,-1.896484 18.999994,18.999994 0 0 1 0.283203,-1.878906 18.999994,18.999994 0 0 1 0.46875,-1.839844 18.999994,18.999994 0 0 1 0.652344,-1.783203 18.999994,18.999994 0 0 1 0.826172,-1.710938 18.999994,18.999994 0 0 1 0.992187,-1.619141 18.999994,18.999994 0 0 1 1.150391,-1.511718 18.999994,18.999994 0 0 1 1.292969,-1.388672 18.999994,18.999994 0 0 1 1.427734,-1.253906 18.999994,18.999994 0 0 1 1.544922,-1.105469 18.999994,18.999994 0 0 1 1.646484,-0.945313 18.999994,18.999994 0 0 1 1.734375,-0.77539 18.999994,18.999994 0 0 1 1.802735,-0.597656 18.999994,18.999994 0 0 1 1.853515,-0.416016 18.999994,18.999994 0 0 1 1.884766,-0.230469 18.999994,18.999994 0 0 1 1.34375,-0.04687 z m -7,48.464844 13.999999,0 0,5 -13.999999,0 0,-5 z"
     id="path4185"
     inkscape:connector-curvature="0" />
  <path
     style="opacity:1;fill:#000000;fill-opacity:0;fill-rule:nonzero;stroke:url(#linearGradient4318);stroke-width:1;stroke-linejoin:round;stroke-miterlimit:4;stroke-dasharray:none;stroke-opacity:1"
     d="m 63.99999,31.828956 a 24.999994,24.999994 0 0 0 -25.000002,25 24.999994,24.999994 0 0 0 12.000002,21.328125 l 0,18.904297 5,0 0,5.113282 16,0 0,-5.113282 5,0 0,-18.916016 a 24.999994,24.999994 0 0 0 12,-21.316406 24.999994,24.999994 0 0 0 -25,-25 z m 0,6 a 18.999994,18.999994 0 0 1 1.89648,0.0957 18.999994,18.999994 0 0 1 1.87891,0.283203 18.999994,18.999994 0 0 1 1.83984,0.46875 18.999994,18.999994 0 0 1 1.78321,0.652344 18.999994,18.999994 0 0 1 1.71093,0.826172 18.999994,18.999994 0 0 1 1.61914,0.992188 18.999994,18.999994 0 0 1 1.51172,1.15039 18.999994,18.999994 0 0 1 1.38867,1.292969 18.999994,18.999994 0 0 1 1.25391,1.427734 18.999994,18.999994 0 0 1 1.10547,1.544922 18.999994,18.999994 0 0 1 0.94531,1.646485 18.999994,18.999994 0 0 1 0.77539,1.734374 18.999994,18.999994 0 0 1 0.59766,1.802735 18.999994,18.999994 0 0 1 0.41601,1.853515 18.999994,18.999994 0 0 1 0.23047,1.884766 18.999994,18.999994 0 0 1 0.0469,1.34375 18.999994,18.999994 0 0 1 -0.0957,1.896484 18.999994,18.999994 0 0 1 -0.2832,1.878907 18.999994,18.999994 0 0 1 -0.46875,1.839843 18.999994,18.999994 0 0 1 -0.65234,1.783204 18.999994,18.999994 0 0 1 -0.82618,1.710937 18.999994,18.999994 0 0 1 -0.99218,1.619141 18.999994,18.999994 0 0 1 -1.15039,1.511718 18.999994,18.999994 0 0 1 -1.29297,1.388672 18.999994,18.999994 0 0 1 -1.42774,1.253907 18.999994,18.999994 0 0 1 -1.54492,1.105468 18.999994,18.999994 0 0 1 -1.64648,0.945313 18.999994,18.999994 0 0 1 -1.61914,0.724609 l 0,5.746094 -14,0 0,-5.757813 A 18.999994,18.999994 0 0 1 56.60158,74.328953 18.999994,18.999994 0 0 1 54.89064,73.502781 18.999994,18.999994 0 0 1 53.2715,72.510594 18.999994,18.999994 0 0 1 51.75978,71.360203 18.999994,18.999994 0 0 1 50.37111,70.067234 18.999994,18.999994 0 0 1 49.1172,68.6395 18.999994,18.999994 0 0 1 48.01174,67.094578 18.999994,18.999994 0 0 1 47.06642,65.448094 18.999994,18.999994 0 0 1 46.29103,63.713719 18.999994,18.999994 0 0 1 45.693375,61.910984 18.999994,18.999994 0 0 1 45.27736,60.057469 a 18.999994,18.999994 0 0 1 -0.230469,-1.884766 18.999994,18.999994 0 0 1 -0.04687,-1.34375 18.999994,18.999994 0 0 1 0.0957,-1.896484 18.999994,18.999994 0 0 1 0.283203,-1.878906 18.999994,18.999994 0 0 1 0.46875,-1.839844 18.999994,18.999994 0 0 1 0.652346,-1.783203 18.999994,18.999994 0 0 1 0.82617,-1.710938 18.999994,18.999994 0 0 1 0.99219,-1.619141 18.999994,18.999994 0 0 1 1.15039,-1.511718 18.999994,18.999994 0 0 1 1.29297,-1.388672 18.999994,18.999994 0 0 1 1.42773,-1.253906 18.999994,18.999994 0 0 1 1.54492,-1.105469 18.999994,18.999994 0 0 1 1.64649,-0.945313 18.999994,18.999994 0 0 1 1.73437,-0.77539 18.999994,18.999994 0 0 1 1.80274,-0.597656 18.999994,18.999994 0 0 1 1.85351,-0.416016 18.999994,18.999994 0 0 1 1.88477,-0.230469 18.999994,18.999994 0 0 1 1.34375,-0.04687 z m -7,48.464842 14,0 0,5 -14,0 0,-5 z"
     id="path4185-3"
     inkscape:connector-curvature="0" />
  <path
     style="color:#000000;clip-rule:nonzero;display:inline;overflow:visible;visibility:visible;opacity:1;isolation:auto;mix-blend-mode:normal;color-interpolation:sRGB;color-interpolation-filters:linearRGB;solid-color:#000000;solid-opacity:1;fill:#000000;fill-opacity:0.35294119;fill-rule:nonzero;stroke:none;stroke-width:0.99999994;stroke-linecap:butt;stroke-linejoin:miter;stroke-miterlimit:4;stroke-dasharray:none;stroke-dashoffset:0;stroke-opacity:1;marker:none;color-rendering:auto;image-rendering:auto;shape-rendering:auto;text-rendering:auto;enable-background:accumulate"
     d="m 86.129,118.002 1.011825,0 c 0.05568,-0.0603 0.07356,-0.13956 0.132142,-0.19821 L 115,90.078642 115,89.131 l -22.613161,0 c -3.466847,0 -6.257839,2.79101 -6.257839,6.25784 l 0,22.61316 z"
     id="path4346-2"
     inkscape:connector-curvature="0" />
  <path
     style="opacity:1;fill:#ffffff;fill-opacity:1;fill-rule:nonzero;stroke:#000000;stroke-width:0;stroke-linejoin:round;stroke-miterlimit:4;stroke-dasharray:none;stroke-opacity:1"
     d="m 63.99999,31.828955 a 24.999994,24.999994 0 0 0 -25,25.000002 24.999994,24.999994 0 0 0 12,21.32812 l 0,18.904304 5,0 0,5.113279 15.999998,0 0,-5.113279 5,0 0,-18.916024 a 24.999994,24.999994 0 0 0 12,-21.3164 A 24.999994,24.999994 0 0 0 63.99999,31.828955 Z m 0,6 a 18.999994,18.999994 0 0 1 1.896484,0.0957 18.999994,18.999994 0 0 1 1.878907,0.283203 18.999994,18.999994 0 0 1 1.839847,0.468749 18.999994,18.999994 0 0 1 1.7832,0.65234 18.999994,18.999994 0 0 1 1.71094,0.82618 18.999994,18.999994 0 0 1 1.61914,0.99218 18.999994,18.999994 0 0 1 1.51172,1.15039 18.999994,18.999994 0 0 1 1.38867,1.29297 18.999994,18.999994 0 0 1 1.2539,1.42774 18.999994,18.999994 0 0 1 1.10547,1.54492 18.999994,18.999994 0 0 1 0.94532,1.64648 18.999994,18.999994 0 0 1 0.77539,1.73438 18.999994,18.999994 0 0 1 0.59765,1.80273 18.999994,18.999994 0 0 1 0.41602,1.85352 18.999994,18.999994 0 0 1 0.23047,1.88476 18.999994,18.999994 0 0 1 0.0469,1.34375 18.999994,18.999994 0 0 1 -0.0957,1.89649 18.999994,18.999994 0 0 1 -0.28321,1.87891 18.999994,18.999994 0 0 1 -0.46875,1.83984 18.999994,18.999994 0 0 1 -0.65234,1.7832 18.999994,18.999994 0 0 1 -0.82617,1.71094 18.999994,18.999994 0 0 1 -0.99219,1.61914 18.999994,18.999994 0 0 1 -1.15039,1.51172 18.999994,18.999994 0 0 1 -1.29297,1.38867 18.999994,18.999994 0 0 1 -1.42773,1.25391 18.999994,18.999994 0 0 1 -1.54493,1.10547 18.999994,18.999994 0 0 1 -1.64648,0.94531 18.999994,18.999994 0 0 1 -1.61914,0.72461 l 0,5.74609 -14,0 0,-5.75781 a 18.999994,18.999994 0 0 1 -0.398438,-0.14649 18.999994,18.999994 0 0 1 -1.710937,-0.82617 18.999994,18.999994 0 0 1 -1.619141,-0.99218 18.999994,18.999994 0 0 1 -1.511718,-1.1504 18.999994,18.999994 0 0 1 -1.388672,-1.29296 18.999994,18.999994 0 0 1 -1.253906,-1.42774 18.999994,18.999994 0 0 1 -1.105469,-1.54492 18.999994,18.999994 0 0 1 -0.945313,-1.64648 18.999994,18.999994 0 0 1 -0.77539,-1.73438 18.999994,18.999994 0 0 1 -0.597657,-1.80273 18.999994,18.999994 0 0 1 -0.416015,-1.85352 18.999994,18.999994 0 0 1 -0.230469,-1.88477 18.999994,18.999994 0 0 1 -0.04687,-1.34375 18.999994,18.999994 0 0 1 0.0957,-1.89648 18.999994,18.999994 0 0 1 0.283203,-1.87891 18.999994,18.999994 0 0 1 0.46875,-1.83984 18.999994,18.999994 0 0 1 0.652344,-1.7832 18.999994,18.999994 0 0 1 0.826172,-1.71094 18.999994,18.999994 0 0 1 0.992187,-1.61914 18.999994,18.999994 0 0 1 1.150391,-1.51172 18.999994,18.999994 0 0 1 1.292969,-1.38867 18.999994,18.999994 0 0 1 1.427734,-1.25391 18.999994,18.999994 0 0 1 1.544922,-1.10547 18.999994,18.999994 0 0 1 1.646484,-0.94531 18.999994,18.999994 0 0 1 1.734375,-0.77539 18.999994,18.999994 0 0 1 1.802735,-0.597655 18.999994,18.999994 0 0 1 1.853515,-0.416016 18.999994,18.999994 0 0 1 1.884766,-0.230469 18.999994,18.999994 0 0 1 1.34375,-0.04687 z m -7,48.464842 13.999998,0 0,5 -13.999998,0 0,-5 z"
     id="path4185-5"
     inkscape:connector-curvature="0" />
  <path
     style="color:#000000;clip-rule:nonzero;display:inline;overflow:visible;visibility:visible;opacity:1;isolation:auto;mix-blend-mode:normal;color-interpolation:sRGB;color-interpolation-filters:linearRGB;solid-color:#000000;solid-opacity:1;fill:url(#linearGradient4474);fill-opacity:1;fill-rule:nonzero;stroke:none;stroke-width:0.99999994;stroke-linecap:butt;stroke-linejoin:miter;stroke-miterlimit:4;stroke-dasharray:none;stroke-dashoffset:0;stroke-opacity:1;marker:none;color-rendering:auto;image-rendering:auto;shape-rendering:auto;text-rendering:auto;enable-background:accumulate"
     d="m 86.62,118.508 28.6875,-28.68555 c 0.0607,-0.06067 0.0791,-0.14259 0.13672,-0.20507 l -22.76953,0 c -3.35422,0 -6.05469,2.70047 -6.05469,6.05468 l 0,22.83594 z"
     id="path4346"
     inkscape:connector-curvature="0" />
</svg>
