<?xml version="1.0" encoding="UTF-8" standalone="no"?>
<!-- Created with Inkscape (http://www.inkscape.org/) -->

<svg
   xmlns:dc="http://purl.org/dc/elements/1.1/"
   xmlns:cc="http://creativecommons.org/ns#"
   xmlns:rdf="http://www.w3.org/1999/02/22-rdf-syntax-ns#"
   xmlns:svg="http://www.w3.org/2000/svg"
   xmlns="http://www.w3.org/2000/svg"
   xmlns:xlink="http://www.w3.org/1999/xlink"
   xmlns:sodipodi="http://sodipodi.sourceforge.net/DTD/sodipodi-0.dtd"
   xmlns:inkscape="http://www.inkscape.org/namespaces/inkscape"
   width="128"
   height="128"
   viewBox="0 0 128 128"
   id="svg4343"
   version="1.1"
   inkscape:version="0.91 r13725"
   sodipodi:docname="internet-mail.svg">
  <defs
     id="defs4345">
    <linearGradient
       id="linearGradient4617">
      <stop
         id="stop4619"
         style="stop-color:#fafafa;stop-opacity:1"
         offset="0" />
      <stop
         id="stop4621"
         style="stop-color:#c8c8c8;stop-opacity:1"
         offset="1" />
    </linearGradient>
    <linearGradient
       id="linearGradient4611">
      <stop
         id="stop4613"
         style="stop-color:#fafafa;stop-opacity:1"
         offset="0" />
      <stop
         id="stop4615"
         style="stop-color:#c8c8c8;stop-opacity:1"
         offset="1" />
    </linearGradient>
    <linearGradient
       id="linearGradient4601">
      <stop
         id="stop4603"
         style="stop-color:#778dab;stop-opacity:1"
         offset="0" />
      <stop
         id="stop4609"
         style="stop-color:#252b37;stop-opacity:1"
         offset="1" />
    </linearGradient>
    <linearGradient
       id="linearGradient2867-449-88-871-390-598-476-591-434-148-57-177-8-3-3-6-4-8-8-8-5">
      <stop
         offset="0"
         style="stop-color:#919caf;stop-opacity:1"
         id="stop4591" />
      <stop
         offset="0.26238"
         style="stop-color:#68758e;stop-opacity:1"
         id="stop4593" />
      <stop
         offset="0.704952"
         style="stop-color:#485a6c;stop-opacity:1"
         id="stop4595" />
      <stop
         offset="1"
         style="stop-color:#444c5c;stop-opacity:1"
         id="stop4597" />
    </linearGradient>
    <linearGradient
       id="linearGradient4632-92-3-0-8-1-9">
      <stop
         offset="0"
         style="stop-color:#fafafa;stop-opacity:1"
         id="stop4634-68-8-0-2-9-4" />
      <stop
         offset="1"
         style="stop-color:#c8c8c8;stop-opacity:1"
         id="stop4636-8-21-7-1-4-8" />
    </linearGradient>
    <linearGradient
       gradientTransform="matrix(3.0781183,0,0,-2.8800488,-9.87542,1097.4258)"
       gradientUnits="userSpaceOnUse"
       xlink:href="#linearGradient3924"
       id="linearGradient4136-68"
       y2="42.261559"
       x2="23.99999"
       y1="5.5907431"
       x1="23.99999" />
    <linearGradient
       id="linearGradient3924">
      <stop
         offset="0"
         style="stop-color:#ffffff;stop-opacity:1"
         id="stop3926" />
      <stop
         offset="0.03750312"
         style="stop-color:#ffffff;stop-opacity:0.23529412"
         id="stop3928" />
      <stop
         offset="0.96667296"
         style="stop-color:#ffffff;stop-opacity:0.15686275"
         id="stop3930" />
      <stop
         offset="1"
         style="stop-color:#ffffff;stop-opacity:0.39215687"
         id="stop3932" />
    </linearGradient>
    <radialGradient
       gradientTransform="matrix(2.003784,0,0,1.4,27.98813,-17.4)"
       gradientUnits="userSpaceOnUse"
       xlink:href="#linearGradient3688-166-749-5"
       id="radialGradient4093-4"
       fy="43.5"
       fx="4.9929786"
       r="2.5"
       cy="43.5"
       cx="4.9929786" />
    <linearGradient
       id="linearGradient3688-166-749-5">
      <stop
         offset="0"
         style="stop-color:#181818;stop-opacity:1"
         id="stop2883-0" />
      <stop
         offset="1"
         style="stop-color:#181818;stop-opacity:0"
         id="stop2885-5" />
    </linearGradient>
    <radialGradient
       gradientTransform="matrix(2.003784,0,0,1.4,-20.01187,-104.4)"
       gradientUnits="userSpaceOnUse"
       xlink:href="#linearGradient3688-166-749-5"
       id="radialGradient4095-1"
       fy="43.5"
       fx="4.9929786"
       r="2.5"
       cy="43.5"
       cx="4.9929786" />
    <linearGradient
       gradientUnits="userSpaceOnUse"
       xlink:href="#linearGradient3702-501-757-0"
       id="linearGradient4097-7"
       y2="39.999443"
       x2="25.058096"
       y1="47.027729"
       x1="25.058096" />
    <linearGradient
       id="linearGradient3702-501-757-0">
      <stop
         offset="0"
         style="stop-color:#181818;stop-opacity:0"
         id="stop2895-0" />
      <stop
         offset="0.5"
         style="stop-color:#181818;stop-opacity:1"
         id="stop2897-2" />
      <stop
         offset="1"
         style="stop-color:#181818;stop-opacity:0"
         id="stop2899-6" />
    </linearGradient>
    <radialGradient
       gradientTransform="matrix(1.7557143,0,0,0.15474917,71.073385,1028.4319)"
       gradientUnits="userSpaceOnUse"
       xlink:href="#linearGradient4387"
       id="radialGradient4432-2"
       fy="93.467628"
       fx="-4.0287771"
       r="35.338131"
       cy="93.467628"
       cx="-4.0287771" />
    <linearGradient
       id="linearGradient4387">
      <stop
         offset="0"
         style="stop-color:#000000;stop-opacity:0.29411766"
         id="stop4389" />
      <stop
         offset="1"
         style="stop-color:#000000;stop-opacity:0"
         id="stop4391" />
    </linearGradient>
    <radialGradient
       cx="-4.0287771"
       cy="93.467628"
       r="35.338131"
       fx="-4.0287771"
       fy="93.467628"
       id="radialGradient4377"
       xlink:href="#linearGradient4387"
       gradientUnits="userSpaceOnUse"
       gradientTransform="matrix(1.6978826,0,0,0.16978827,218.84039,1026.4935)" />
    <radialGradient
       cx="4.9929786"
       cy="43.5"
       r="2.5"
       fx="4.9929786"
       fy="43.5"
       id="radialGradient2455-1"
       xlink:href="#linearGradient3688-166-749-5"
       gradientUnits="userSpaceOnUse"
       gradientTransform="matrix(2.003784,0,0,1.4,27.98813,-17.4)" />
    <radialGradient
       cx="4.9929786"
       cy="43.5"
       r="2.5"
       fx="4.9929786"
       fy="43.5"
       id="radialGradient2457-5"
       xlink:href="#linearGradient3688-166-749-5"
       gradientUnits="userSpaceOnUse"
       gradientTransform="matrix(2.003784,0,0,1.4,-20.01187,-104.4)" />
    <linearGradient
       x1="25.058096"
       y1="47.027729"
       x2="25.058096"
       y2="39.999443"
       id="linearGradient2459-7"
       xlink:href="#linearGradient3702-501-757-0"
       gradientUnits="userSpaceOnUse" />
    <radialGradient
       cx="6.7304144"
       cy="9.9571075"
       r="12.671875"
       fx="6.2001843"
       fy="9.9571075"
       id="radialGradient3395"
       xlink:href="#linearGradient2867-449-88-871-390-598-476-591-434-148-57-177-8-3-3-6-4-8-8-8-5"
       gradientUnits="userSpaceOnUse"
       gradientTransform="matrix(0,25.083279,-30.794253,0,372.81658,716.27138)" />
    <linearGradient
       id="linearGradient4599">
      <stop
         id="stop3750-1-0-7-6-6-1-3-9-3"
         style="stop-color:#919caf;stop-opacity:1"
         offset="0" />
      <stop
         id="stop3752-3-7-4-0-32-8-923-0-7"
         style="stop-color:#68758e;stop-opacity:1"
         offset="0.26238" />
      <stop
         id="stop3754-1-8-5-2-7-6-7-1-9"
         style="stop-color:#485a6c;stop-opacity:1"
         offset="0.704952" />
      <stop
         id="stop3756-1-6-2-6-6-1-96-6-0"
         style="stop-color:#444c5c;stop-opacity:1"
         offset="1" />
    </linearGradient>
    <linearGradient
       x1="23.99999"
       y1="4.999989"
       x2="23.99999"
       y2="43"
       id="linearGradient3159"
       xlink:href="#linearGradient3924-776"
       gradientUnits="userSpaceOnUse"
       gradientTransform="matrix(2.7297298,0,0,2.7297298,-1.5135132,925.84969)" />
    <linearGradient
       id="linearGradient3924-776">
      <stop
         id="stop3124"
         style="stop-color:#ffffff;stop-opacity:1"
         offset="0" />
      <stop
         id="stop3126"
         style="stop-color:#ffffff;stop-opacity:0.23529412"
         offset="0.06316455" />
      <stop
         id="stop3128"
         style="stop-color:#ffffff;stop-opacity:0.15686275"
         offset="0.95056331" />
      <stop
         id="stop3130"
         style="stop-color:#ffffff;stop-opacity:0.39215687"
         offset="1" />
    </linearGradient>
    <linearGradient
       x1="76.523361"
       y1="-9.023138"
       x2="76.523361"
       y2="3.4508991"
       id="linearGradient3149"
       xlink:href="#linearGradient4387"
       gradientUnits="userSpaceOnUse"
       gradientTransform="matrix(1,0,0,-1,-1.4e-6,994.39513)" />
    <linearGradient
       gradientTransform="matrix(3.0781183,0,0,-2.8800488,138.12458,1095.5902)"
       gradientUnits="userSpaceOnUse"
       xlink:href="#linearGradient3924"
       id="linearGradient4136-68-9"
       y2="42.261559"
       x2="23.99999"
       y1="5.5907431"
       x1="23.99999" />
    <radialGradient
       gradientTransform="matrix(2.003784,0,0,1.4,27.98813,-17.4)"
       gradientUnits="userSpaceOnUse"
       xlink:href="#linearGradient3688-166-749-5"
       id="radialGradient4093-4-9"
       fy="43.5"
       fx="4.9929786"
       r="2.5"
       cy="43.5"
       cx="4.9929786" />
    <radialGradient
       gradientTransform="matrix(2.003784,0,0,1.4,-20.01187,-104.4)"
       gradientUnits="userSpaceOnUse"
       xlink:href="#linearGradient3688-166-749-5"
       id="radialGradient4095-1-0"
       fy="43.5"
       fx="4.9929786"
       r="2.5"
       cy="43.5"
       cx="4.9929786" />
    <linearGradient
       gradientUnits="userSpaceOnUse"
       xlink:href="#linearGradient3702-501-757-0"
       id="linearGradient4097-7-6"
       y2="39.999443"
       x2="25.058096"
       y1="47.027729"
       x1="25.058096" />
    <radialGradient
       gradientTransform="matrix(1.7557143,0,0,0.15474917,71.073383,1027.4881)"
       gradientUnits="userSpaceOnUse"
       xlink:href="#linearGradient4387"
       id="radialGradient4432-2-8"
       fy="93.467628"
       fx="-4.0287771"
       r="35.338131"
       cy="93.467628"
       cx="-4.0287771" />
    <linearGradient
       inkscape:collect="always"
       xlink:href="#linearGradient4617"
       id="linearGradient4557"
       x1="64.322525"
       y1="934.02734"
       x2="64.606346"
       y2="1045.7246"
       gradientUnits="userSpaceOnUse"
       gradientTransform="translate(0,-4.00003)" />
    <linearGradient
       inkscape:collect="always"
       xlink:href="#linearGradient4611"
       id="linearGradient4565"
       x1="64.229401"
       y1="933.75671"
       x2="64.467255"
       y2="1045.6863"
       gradientUnits="userSpaceOnUse"
       gradientTransform="translate(0,-4.00003)" />
    <linearGradient
       inkscape:collect="always"
       xlink:href="#linearGradient4632-92-3-0-8-1-9"
       id="linearGradient4579"
       x1="64.01062"
       y1="934.08075"
       x2="63.864891"
       y2="1046.3634"
       gradientUnits="userSpaceOnUse"
       gradientTransform="translate(0,-4.00003)" />
    <linearGradient
       inkscape:collect="always"
       xlink:href="#linearGradient4601"
       id="linearGradient4587"
       x1="63.662788"
       y1="933.8559"
       x2="63.194389"
       y2="1046.1398"
       gradientUnits="userSpaceOnUse"
       gradientTransform="translate(0,-4.00003)" />
  </defs>
  <sodipodi:namedview
     id="base"
     pagecolor="#ffffff"
     bordercolor="#666666"
     borderopacity="1.0"
     inkscape:pageopacity="0.0"
     inkscape:pageshadow="2"
     inkscape:zoom="3.0883392"
     inkscape:cx="70.61548"
     inkscape:cy="46.51319"
     inkscape:document-units="px"
     inkscape:current-layer="layer1"
     showgrid="false"
     units="px"
     inkscape:window-width="1920"
     inkscape:window-height="974"
     inkscape:window-x="0"
     inkscape:window-y="24"
     inkscape:window-maximized="1" />
  <metadata
     id="metadata4348">
    <rdf:RDF>
      <cc:Work
         rdf:about="">
        <dc:format>image/svg+xml</dc:format>
        <dc:type
           rdf:resource="http://purl.org/dc/dcmitype/StillImage" />
        <dc:title />
      </cc:Work>
    </rdf:RDF>
  </metadata>
  <g
     inkscape:label="Layer 1"
     inkscape:groupmode="layer"
     id="layer1"
     transform="translate(0,-924.36216)">
    <path
       style="color:#000000;display:inline;overflow:visible;visibility:visible;opacity:1;fill:url(#linearGradient4587);fill-opacity:1;fill-rule:nonzero;stroke:#000000;stroke-width:1;stroke-miterlimit:4;stroke-dasharray:none;stroke-opacity:0.58823532;marker:none;enable-background:accumulate"
       d="m 64.009766,930.33087 c -1.297995,0 -2.595395,0.40159 -3.589844,1.20508 L 8.265625,973.67658 c 0.00502,0.004 0.010596,0.008 0.015625,0.0117 -1.0766324,0.83215 -1.7714844,2.05859 -1.7714844,3.45118 l 0,60.67974 c 0,2.5171 2.2242121,4.543 4.9882814,4.543 l 105.021483,0 c 2.76407,0 4.99024,-2.0259 4.99024,-4.543 l 0,-60.67974 c 0,-1.39282 -0.69651,-2.61903 -1.77344,-3.45118 0.006,-0.005 0.0118,-0.009 0.0176,-0.0137 L 67.601562,931.53595 c -0.994449,-0.80349 -2.293802,-1.20508 -3.591796,-1.20508 z"
       id="rect5505-21-3-9-0-5-3"
       inkscape:connector-curvature="0" />
    <path
       style="color:#000000;display:inline;overflow:visible;visibility:visible;fill:url(#linearGradient4579);fill-opacity:1;fill-rule:nonzero;stroke:#000000;stroke-width:0;stroke-miterlimit:4;stroke-dasharray:none;stroke-opacity:0.29743593;marker:none;enable-background:accumulate"
       d="m 64,930.33088 c -1.297995,0 -2.595395,0.40159 -3.589844,1.20508 L 8.2558594,973.67658 c 0.005,0.004 0.010595,0.008 0.015625,0.0117 C 7.1948524,974.52045 6.5,975.74688 6.5,977.13947 l 0,60.67973 c 0,2.5171 2.2242127,4.543 4.988281,4.543 l 105.021489,0 c 2.76407,0 4.99023,-2.0259 4.99023,-4.543 l 0,-60.67973 c 0,-1.39282 -0.69651,-2.61902 -1.77344,-3.45117 0.006,-0.005 0.0118,-0.009 0.0176,-0.0137 L 67.591797,931.53596 C 66.597348,930.73247 65.297994,930.33088 64,930.33088 Z m 0,4.74218 c 0.592562,0 1.185912,0.092 1.744141,0.27539 0.558229,0.18338 1.081168,0.45741 1.535156,0.82422 l 47.617183,38.47461 c -0.005,0.005 -0.0106,0.007 -0.0156,0.0117 0.49164,0.3799 0.89584,0.85093 1.17773,1.38477 0.2819,0.53383 0.44141,1.13172 0.44141,1.76757 l 0,55.40238 c 0,0.5746 -0.12743,1.1206 -0.35742,1.6172 -0.22999,0.4966 -0.56281,0.9435 -0.97461,1.3184 -0.41181,0.3748 -0.90181,0.6793 -1.44727,0.8886 -0.54545,0.2094 -1.14641,0.3243 -1.77734,0.3243 l -95.888672,0 c -0.630929,0 -1.232059,-0.1149 -1.777344,-0.3243 -0.545285,-0.2093 -1.035683,-0.5138 -1.447266,-0.8886 -0.411582,-0.3749 -0.742835,-0.8218 -0.972656,-1.3184 C 11.627601,1034.3343 11.5,1033.7883 11.5,1033.2137 l 0,-55.40236 c 0,-0.63574 0.157969,-1.23371 0.439453,-1.76757 0.281484,-0.53386 0.686229,-1.00487 1.177735,-1.38477 -0.0046,-0.004 -0.0091,-0.006 -0.01367,-0.01 l 47.61914,-38.47656 c 0.453988,-0.36681 0.977373,-0.64084 1.535156,-0.82422 0.557784,-0.18337 1.149625,-0.27539 1.742188,-0.27539 z"
       id="rect5505-21-3-9-0-5-3-74"
       inkscape:connector-curvature="0" />
    <rect
       style="opacity:1;fill:#eeffaa;fill-opacity:1;fill-rule:nonzero;stroke:#000000;stroke-width:0;stroke-linejoin:round;stroke-miterlimit:4;stroke-dasharray:none;stroke-opacity:0.29743593"
       id="rect4388-1"
       width="97.349281"
       height="45.903141"
       x="15.325359"
       y="964.49506" />
    <text
       xml:space="preserve"
       style="font-style:normal;font-weight:normal;font-size:6.25px;line-height:125%;font-family:sans-serif;letter-spacing:0px;word-spacing:0px;fill:#000000;fill-opacity:1;stroke:none;stroke-width:1px;stroke-linecap:butt;stroke-linejoin:miter;stroke-opacity:1"
       x="20.624722"
       y="974.13385"
       id="text4337"
       sodipodi:linespacing="125%"><tspan
         sodipodi:role="line"
         id="tspan4339"
         x="20.624722"
         y="974.13385"
         style="font-style:normal;font-variant:normal;font-weight:normal;font-stretch:normal;font-family:UnPilgi;-inkscape-font-specification:UnPilgi">Dear [insert gender noun here]</tspan><tspan
         sodipodi:role="line"
         x="20.624722"
         y="981.94635"
         id="tspan4341"
         style="font-style:normal;font-variant:normal;font-weight:normal;font-stretch:normal;font-family:UnPilgi;-inkscape-font-specification:UnPilgi" /><tspan
         sodipodi:role="line"
         x="20.624722"
         y="989.75885"
         id="tspan4343"
         style="font-style:normal;font-variant:normal;font-weight:normal;font-stretch:normal;font-family:UnPilgi;-inkscape-font-specification:UnPilgi">Wubba Lubba Dubb Dubb,</tspan><tspan
         sodipodi:role="line"
         x="20.624722"
         y="997.57135"
         id="tspan4347"
         style="font-style:normal;font-variant:normal;font-weight:normal;font-stretch:normal;font-family:UnPilgi;-inkscape-font-specification:UnPilgi">Every one I know goes away,</tspan><tspan
         sodipodi:role="line"
         x="20.624722"
         y="1005.3839"
         id="tspan4353"
         style="font-style:normal;font-variant:normal;font-weight:normal;font-stretch:normal;font-family:UnPilgi;-inkscape-font-specification:UnPilgi">In the end. And you could have</tspan><tspan
         sodipodi:role="line"
         x="20.624722"
         y="1013.1964"
         id="tspan4357"
         style="font-style:normal;font-variant:normal;font-weight:normal;font-stretch:normal;font-family:UnPilgi;-inkscape-font-specification:UnPilgi">it all, my empire of dirt. I will</tspan><tspan
         sodipodi:role="line"
         x="20.624722"
         y="1021.0088"
         id="tspan4359"
         style="font-style:normal;font-variant:normal;font-weight:normal;font-stretch:normal;font-family:UnPilgi;-inkscape-font-specification:UnPilgi">let you down. I will make you.</tspan><tspan
         sodipodi:role="line"
         x="20.624722"
         y="1028.8213"
         id="tspan4361"
         style="font-style:normal;font-variant:normal;font-weight:normal;font-stretch:normal;font-family:UnPilgi;-inkscape-font-specification:UnPilgi">Hurt</tspan></text>
    <path
       style="color:#000000;display:inline;overflow:visible;visibility:visible;fill:url(#linearGradient4557);fill-opacity:1;fill-rule:nonzero;stroke:#000000;stroke-width:0;stroke-miterlimit:4;stroke-dasharray:none;stroke-opacity:0.29743593;marker:none;enable-background:accumulate"
       d="m 12.083445,1042.3622 c -0.77318,0 -1.50817,-0.1391 -2.17651,-0.3889 -0.66833,-0.2498 -1.26956,-0.6109 -1.77409,-1.0582 -0.50451,-0.4473 -0.91193,-0.9803 -1.19367,-1.5729 -0.28174,-0.5926 -0.43917,-1.2453 -0.43917,-1.9307 l 0,-59.97854 c 0.0317,-1.33783 0.58043,-2.54937 1.48388,-3.4572 l 52.065543,42.06724 c 2.18864,1.7683 5.714457,1.7683 7.903087,0 l 52.065535,-42.06724 c 0.90342,0.90773 1.45032,2.11937 1.48194,3.4572 l 0,59.97854 c 0,0.6854 -0.15548,1.3381 -0.43722,1.9307 -0.28174,0.5926 -0.68917,1.1256 -1.19369,1.5729 -0.50451,0.4473 -1.10575,0.8084 -1.77409,1.0582 -0.66832,0.2498 -1.40524,0.3889 -2.17842,0.3889 l -103.833135,0 z"
       id="path4294"
       inkscape:connector-curvature="0" />
    <path
       style="color:#000000;display:inline;overflow:visible;visibility:visible;fill:#000000;fill-opacity:0.58823532;fill-rule:nonzero;stroke:#000000;stroke-width:0;stroke-miterlimit:4;stroke-dasharray:none;stroke-opacity:0.29411765;marker:none;enable-background:accumulate"
       d="m 8.414059,973.60231 -0.154297,0.125 c 0.005,0.004 0.0106,0.008 0.01563,0.0117 -0.122198,0.0944 -0.181064,0.23947 -0.292968,0.34375 l 52.357421,42.30284 c 0.50607,0.409 1.089018,0.7155 1.710938,0.9199 0.62193,0.2044 1.282829,0.3067 1.943359,0.3067 0.66054,0 1.319966,-0.1023 1.941406,-0.3067 0.62143,-0.2044 1.204868,-0.5109 1.710938,-0.9199 l 52.371094,-42.31065 c -0.10971,-0.10175 -0.16759,-0.24359 -0.28711,-0.33594 0.006,-0.005 0.0118,-0.009 0.0176,-0.0137 l -0.16406,-0.13086 -52.001957,42.01365 c -0.49714,0.4017 -1.068728,0.7035 -1.679688,0.9043 -0.61095,0.2008 -1.261266,0.3008 -1.910156,0.3008 -0.64889,0 -1.297253,-0.1 -1.908203,-0.3008 -0.61096,-0.2008 -1.184491,-0.5026 -1.681641,-0.9043 L 8.414059,973.60231 Z"
       id="path4436-0-2"
       inkscape:connector-curvature="0" />
    <path
       style="color:#000000;display:inline;overflow:visible;visibility:visible;fill:url(#linearGradient4565);fill-opacity:1;fill-rule:nonzero;stroke:#000000;stroke-width:0;stroke-miterlimit:4;stroke-dasharray:none;stroke-opacity:0.29743593;marker:none;enable-background:accumulate"
       d="m 8.2646385,1041.1552 c 0.40112,0.3274 0.82437,0.6371 1.32227,0.8339 0.6074805,0.2402 1.2757205,0.3731 1.9785105,0.3731 l 104.869161,0 c 0.70279,0 1.37103,-0.1329 1.97852,-0.3731 0.49866,-0.1971 0.9207,-0.5078 1.32226,-0.8359 L 67.590809,999.02237 c -1.98857,-1.6067 -5.19112,-1.6067 -7.17969,0 L 8.2646385,1041.1552 Z"
       id="rect5505-21-3-9-0-5-3-7"
       inkscape:connector-curvature="0" />
    <g
       id="g4775">
      <rect
         transform="matrix(1,0,-0.50852789,0.86104552,0,0)"
         y="1204.8027"
         x="628.67999"
         height="5.7745314"
         width="7.629281"
         id="rect5271"
         style="opacity:1;fill:#e4498b;fill-opacity:1;fill-rule:nonzero;stroke:#000000;stroke-width:0;stroke-linejoin:round;stroke-miterlimit:4;stroke-dasharray:none;stroke-opacity:1" />
      <rect
         transform="matrix(1,0,-0.50852789,0.86104552,0,0)"
         y="1204.8024"
         x="654.78345"
         height="5.7745314"
         width="7.629281"
         id="rect5271-5-8"
         style="opacity:1;fill:#e4498b;fill-opacity:1;fill-rule:nonzero;stroke:#000000;stroke-width:0;stroke-linejoin:round;stroke-miterlimit:4;stroke-dasharray:none;stroke-opacity:1" />
      <rect
         transform="matrix(1,0,-0.50852789,0.86104552,0,0)"
         y="1204.8021"
         x="680.89722"
         height="5.7745314"
         width="7.629281"
         id="rect5271-5-8-6"
         style="opacity:1;fill:#e4498b;fill-opacity:1;fill-rule:nonzero;stroke:#000000;stroke-width:0;stroke-linejoin:round;stroke-miterlimit:4;stroke-dasharray:none;stroke-opacity:1" />
      <rect
         transform="matrix(1,0,-0.50852789,0.86104552,0,0)"
         y="1204.8021"
         x="707.00006"
         height="5.7745314"
         width="7.629281"
         id="rect5271-5-8-1"
         style="opacity:1;fill:#e4498b;fill-opacity:1;fill-rule:nonzero;stroke:#000000;stroke-width:0;stroke-linejoin:round;stroke-miterlimit:4;stroke-dasharray:none;stroke-opacity:1" />
      <rect
         transform="matrix(0,1,0.86104552,-0.50852789,0,0)"
         y="7.4716101"
         x="988.49384"
         height="5.7745314"
         width="7.629281"
         id="rect5271-5-8-17-4"
         style="opacity:1;fill:#e4498b;fill-opacity:1;fill-rule:nonzero;stroke:#000000;stroke-width:0;stroke-linejoin:round;stroke-miterlimit:4;stroke-dasharray:none;stroke-opacity:1" />
      <rect
         transform="matrix(0,1,0.86104552,-0.50852789,0,0)"
         y="7.4713659"
         x="1014.6076"
         height="5.7745314"
         width="7.629281"
         id="rect5271-5-8-6-6-8"
         style="opacity:1;fill:#e4498b;fill-opacity:1;fill-rule:nonzero;stroke:#000000;stroke-width:0;stroke-linejoin:round;stroke-miterlimit:4;stroke-dasharray:none;stroke-opacity:1" />
      <rect
         transform="matrix(0,1,-0.86104552,-0.50852789,0,0)"
         y="-141.18488"
         x="913.3161"
         height="5.7745314"
         width="7.629281"
         id="rect5271-5-8-17-4-5"
         style="opacity:1;fill:#e4498b;fill-opacity:1;fill-rule:nonzero;stroke:#000000;stroke-width:0;stroke-linejoin:round;stroke-miterlimit:4;stroke-dasharray:none;stroke-opacity:1" />
      <rect
         transform="matrix(0,1,-0.86104552,-0.50852789,0,0)"
         y="-141.18512"
         x="939.42987"
         height="5.7745314"
         width="7.629281"
         id="rect5271-5-8-6-6-8-8"
         style="opacity:1;fill:#e4498b;fill-opacity:1;fill-rule:nonzero;stroke:#000000;stroke-width:0;stroke-linejoin:round;stroke-miterlimit:4;stroke-dasharray:none;stroke-opacity:1" />
    </g>
    <g
       id="g4785">
      <rect
         transform="matrix(1,0,-0.50852789,0.86104552,0,0)"
         y="1204.8025"
         x="641.73175"
         height="5.7745314"
         width="7.629281"
         id="rect5271-5"
         style="opacity:1;fill:#698cd4;fill-opacity:1;fill-rule:nonzero;stroke:#000000;stroke-width:0;stroke-linejoin:round;stroke-miterlimit:4;stroke-dasharray:none;stroke-opacity:1" />
      <rect
         transform="matrix(1,0,-0.50852789,0.86104552,0,0)"
         y="1204.8024"
         x="667.84528"
         height="5.7745314"
         width="7.629281"
         id="rect5271-5-0"
         style="opacity:1;fill:#698cd4;fill-opacity:1;fill-rule:nonzero;stroke:#000000;stroke-width:0;stroke-linejoin:round;stroke-miterlimit:4;stroke-dasharray:none;stroke-opacity:1" />
      <rect
         transform="matrix(1,0,-0.50852789,0.86104552,0,0)"
         y="1204.8024"
         x="693.94843"
         height="5.7745314"
         width="7.629281"
         id="rect5271-5-85"
         style="opacity:1;fill:#698cd4;fill-opacity:1;fill-rule:nonzero;stroke:#000000;stroke-width:0;stroke-linejoin:round;stroke-miterlimit:4;stroke-dasharray:none;stroke-opacity:1" />
      <rect
         transform="matrix(1,0,-0.50852789,0.86104552,0,0)"
         y="1204.8021"
         x="720.06195"
         height="5.7745314"
         width="7.629281"
         id="rect5271-5-0-5"
         style="opacity:1;fill:#698cd4;fill-opacity:1;fill-rule:nonzero;stroke:#000000;stroke-width:0;stroke-linejoin:round;stroke-miterlimit:4;stroke-dasharray:none;stroke-opacity:1" />
      <rect
         transform="matrix(0,1,0.86104552,-0.50852789,0,0)"
         y="7.4716101"
         x="1001.5557"
         height="5.7745314"
         width="7.629281"
         id="rect5271-5-0-59-1"
         style="opacity:1;fill:#698cd4;fill-opacity:1;fill-rule:nonzero;stroke:#000000;stroke-width:0;stroke-linejoin:round;stroke-miterlimit:4;stroke-dasharray:none;stroke-opacity:1" />
      <rect
         transform="matrix(0,1,0.86104552,-0.50852789,0,0)"
         y="7.4716101"
         x="1027.6589"
         height="5.7745314"
         width="7.629281"
         id="rect5271-5-85-2-5"
         style="opacity:1;fill:#698cd4;fill-opacity:1;fill-rule:nonzero;stroke:#000000;stroke-width:0;stroke-linejoin:round;stroke-miterlimit:4;stroke-dasharray:none;stroke-opacity:1" />
      <rect
         transform="matrix(0,1,-0.86104552,-0.50852789,0,0)"
         y="-141.18488"
         x="926.37799"
         height="5.7745314"
         width="7.629281"
         id="rect5271-5-0-59-1-3"
         style="opacity:1;fill:#698cd4;fill-opacity:1;fill-rule:nonzero;stroke:#000000;stroke-width:0;stroke-linejoin:round;stroke-miterlimit:4;stroke-dasharray:none;stroke-opacity:1" />
      <rect
         transform="matrix(0,1,-0.86104552,-0.50852789,0,0)"
         y="-141.18488"
         x="952.48114"
         height="5.7745314"
         width="7.629281"
         id="rect5271-5-85-2-5-8"
         style="opacity:1;fill:#698cd4;fill-opacity:1;fill-rule:nonzero;stroke:#000000;stroke-width:0;stroke-linejoin:round;stroke-miterlimit:4;stroke-dasharray:none;stroke-opacity:1" />
    </g>
    <path
       style="color:#000000;display:inline;overflow:visible;visibility:visible;fill:#000000;fill-opacity:0.58823532;fill-rule:nonzero;stroke:#000000;stroke-width:0;stroke-miterlimit:4;stroke-dasharray:none;stroke-opacity:0.29743593;marker:none;enable-background:accumulate"
       d="M 120.0957,1040.6649 67.652344,998.29577 c -0.506064,-0.409 -1.089501,-0.7156 -1.710938,-0.92 -0.621436,-0.2044 -1.280872,-0.3067 -1.941406,-0.3067 -0.660534,0 -1.321434,0.1023 -1.943359,0.3067 -0.621925,0.2044 -1.204874,0.511 -1.710938,0.92 L 7.9042964,1040.6668 c 0.088627,0.091 0.1307129,0.2139 0.2265625,0.2989 0.06996,0.062 0.1725155,0.088 0.2460937,0.1465 L 60.408203,999.07307 c 0.497143,-0.4017 1.070688,-0.7035 1.681641,-0.9043 0.610953,-0.2009 1.259313,-0.3008 1.908203,-0.3008 0.64889,0 1.299203,0.1 1.910156,0.3008 0.610953,0.2008 1.182545,0.5026 1.679688,0.9043 l 52.033199,42.03913 c 0.0736,-0.059 0.17613,-0.084 0.24609,-0.1465 0.0966,-0.086 0.1393,-0.2091 0.22852,-0.3008 z"
       id="path4436"
       inkscape:connector-curvature="0" />
  </g>
</svg>
