<?xml version="1.0" encoding="UTF-8" standalone="no"?>
<!-- Created using Karbon, part of Calligra: http://www.calligra.org/karbon -->

<svg
   xmlns:dc="http://purl.org/dc/elements/1.1/"
   xmlns:cc="http://creativecommons.org/ns#"
   xmlns:rdf="http://www.w3.org/1999/02/22-rdf-syntax-ns#"
   xmlns:svg="http://www.w3.org/2000/svg"
   xmlns="http://www.w3.org/2000/svg"
   xmlns:xlink="http://www.w3.org/1999/xlink"
   xmlns:sodipodi="http://sodipodi.sourceforge.net/DTD/sodipodi-0.dtd"
   xmlns:inkscape="http://www.inkscape.org/namespaces/inkscape"
   width="128"
   height="128"
   id="svg2"
   version="1.1"
   inkscape:version="0.91 r13725"
   sodipodi:docname="multimedia-video-player.svg"
   viewBox="0 0 128 128">
  <metadata
     id="metadata12">
    <rdf:RDF>
      <cc:Work
         rdf:about="">
        <dc:format>image/svg+xml</dc:format>
        <dc:type
           rdf:resource="http://purl.org/dc/dcmitype/StillImage" />
        <dc:title />
      </cc:Work>
    </rdf:RDF>
  </metadata>
  <sodipodi:namedview
     pagecolor="#ffffff"
     bordercolor="#666666"
     borderopacity="1"
     objecttolerance="10"
     gridtolerance="10"
     guidetolerance="10"
     inkscape:pageopacity="0"
     inkscape:pageshadow="2"
     inkscape:window-width="1920"
     inkscape:window-height="971"
     id="namedview10"
     showgrid="false"
     inkscape:zoom="3.375"
     inkscape:cx="51.229802"
     inkscape:cy="62.366716"
     inkscape:window-x="1024"
     inkscape:window-y="24"
     inkscape:window-maximized="1"
     inkscape:current-layer="svg2"
     inkscape:showpageshadow="false"
     borderlayer="true"
     units="px"
     showguides="false"
     inkscape:document-units="px">
    <sodipodi:guide
       position="1.9073486e-06,48.000002"
       orientation="47.999998,0"
       id="guide4062" />
    <sodipodi:guide
       position="1.9073486e-06,3.8146973e-06"
       orientation="0,47.999998"
       id="guide4064" />
    <sodipodi:guide
       position="48,3.8146973e-06"
       orientation="-47.999998,0"
       id="guide4066" />
    <sodipodi:guide
       position="48,48.000002"
       orientation="0,-47.999998"
       id="guide4068" />
    <sodipodi:guide
       position="4.0000019,44.000002"
       orientation="39.999998,0"
       id="guide4072" />
    <sodipodi:guide
       position="4.0000019,4.0000038"
       orientation="0,39.999998"
       id="guide4074" />
    <sodipodi:guide
       position="44,4.0000038"
       orientation="-39.999998,0"
       id="guide4076" />
    <sodipodi:guide
       position="44,44.000002"
       orientation="0,-39.999998"
       id="guide4078" />
    <sodipodi:guide
       position="15.000002,33.000002"
       orientation="17.999998,0"
       id="guide4080" />
    <sodipodi:guide
       position="15.000002,15.000004"
       orientation="0,17.999998"
       id="guide4082" />
    <sodipodi:guide
       position="33,15.000004"
       orientation="-17.999998,0"
       id="guide4084" />
    <sodipodi:guide
       position="33,33.000002"
       orientation="0,-17.999998"
       id="guide4086" />
    <inkscape:grid
       type="xygrid"
       id="grid3359" />
  </sodipodi:namedview>
  <defs
     id="defs4">
    <linearGradient
       inkscape:collect="always"
       id="linearGradient4182">
      <stop
         style="stop-color:#ffffff;stop-opacity:0.19607843"
         offset="0"
         id="stop4184" />
      <stop
         style="stop-color:#ffffff;stop-opacity:0"
         offset="1"
         id="stop4186" />
    </linearGradient>
    <linearGradient
       id="linearGradient4406"
       inkscape:collect="always">
      <stop
         id="stop4176"
         offset="0"
         style="stop-color:#223656;stop-opacity:1;" />
      <stop
         id="stop4178"
         offset="1"
         style="stop-color:#223656;stop-opacity:0.78431374" />
    </linearGradient>
    <linearGradient
       id="linearGradient3924-3">
      <stop
         offset="0"
         style="stop-color:#ffffff;stop-opacity:1"
         id="stop4166" />
      <stop
         offset="0.5376243"
         style="stop-color:#ffffff;stop-opacity:0.23529412"
         id="stop4168" />
      <stop
         offset="0.95056331"
         style="stop-color:#ffffff;stop-opacity:0.15686275"
         id="stop4170" />
      <stop
         offset="1"
         style="stop-color:#ffffff;stop-opacity:0.39215687"
         id="stop4172" />
    </linearGradient>
    <linearGradient
       x1="23.99999"
       y1="4.999989"
       x2="23.99999"
       y2="43"
       id="linearGradient3640"
       xlink:href="#linearGradient4182"
       gradientUnits="userSpaceOnUse"
       gradientTransform="matrix(2.7297298,0,0,2.7297298,-1.51351,1.48651)" />
    <linearGradient
       id="linearGradient3924">
      <stop
         id="stop3926"
         style="stop-color:#ffffff;stop-opacity:1"
         offset="0" />
      <stop
         id="stop3928"
         style="stop-color:#ffffff;stop-opacity:0.23529412"
         offset="0.5376243" />
      <stop
         id="stop3930"
         style="stop-color:#ffffff;stop-opacity:0.15686275"
         offset="0.95056331" />
      <stop
         id="stop3932"
         style="stop-color:#ffffff;stop-opacity:0.39215687"
         offset="1" />
    </linearGradient>
    <linearGradient
       inkscape:collect="always"
       xlink:href="#linearGradient4406"
       id="linearGradient4412"
       x1="67.06424"
       y1="118.81392"
       x2="67.627594"
       y2="15.377273"
       gradientUnits="userSpaceOnUse" />
  </defs>
  <path
     style="fill:url(#linearGradient4412);fill-opacity:1;stroke:none;stroke-width:3.9848628"
     d="M 18.05825,15 C 14.70198,15 12,17.70198 12,21.05825 l 0,91.8835 C 12,116.29802 14.70198,119 18.05825,119 l 91.8835,0 C 113.29802,119 116,116.29802 116,112.94175 l 0,-91.8835 C 116,17.70198 113.29802,15 109.94175,15 l -91.8835,0 z m 1.74136,7.7996 7.7996,0 0,7.79961 -7.7996,0 0,-7.79961 z m 80.60118,0 7.7996,0 0,7.79961 -7.7996,0 0,-7.79961 z m -80.60118,19.5 7.7996,0 0,7.79961 -7.7996,0 0,-7.79961 z m 80.60118,0 7.7996,0 0,7.79961 -7.7996,0 0,-7.79961 z m -80.60118,20.79961 7.7996,0 0,7.80158 -7.7996,0 0,-7.80158 z m 80.60118,0 7.7996,0 0,7.80158 -7.7996,0 0,-7.80158 z m -80.60118,20.80158 7.7996,0 0,7.7996 -7.7996,0 0,-7.7996 z m 80.60118,0 7.7996,0 0,7.7996 -7.7996,0 0,-7.7996 z m -80.60118,19.5 7.7996,0 0,7.7996 -7.7996,0 0,-7.7996 z m 80.60118,0 7.7996,0 0,7.7996 -7.7996,0 0,-7.7996 z"
     id="rect4197"
     inkscape:connector-curvature="0" />
  <rect
     style="opacity:0.5;fill:none;stroke:url(#linearGradient3640);stroke-width:1;stroke-linecap:round;stroke-linejoin:round;stroke-miterlimit:4;stroke-dasharray:none;stroke-dashoffset:0;stroke-opacity:1"
     id="rect6741-7"
     y="16.5"
     x="13.500004"
     ry="5"
     rx="5"
     height="101"
     width="101" />
  <rect
     style="fill:#4aaee8;fill-opacity:1;stroke:none;stroke-width:3.9848628"
     id="rect4323"
     width="57.199966"
     height="20.799992"
     x="35.400028"
     y="22.799988" />
  <rect
     style="color:#000000;display:inline;overflow:visible;visibility:visible;opacity:0.35;fill:none;stroke:#410000;stroke-width:1;stroke-linecap:round;stroke-linejoin:round;stroke-miterlimit:4;stroke-dasharray:none;stroke-dashoffset:0;stroke-opacity:1;marker:none;enable-background:accumulate"
     id="rect5505-3"
     y="15.5"
     x="12.500004"
     ry="6"
     rx="6"
     height="103"
     width="103" />
  <rect
     style="fill:#4aaee8;fill-opacity:1;stroke:none;stroke-width:3.9848628"
     id="rect4325"
     width="57.199963"
     height="20.799995"
     x="35.400028"
     y="90.400055" />
  <rect
     y="48.799988"
     x="35.400028"
     height="36.399994"
     width="57.199963"
     id="rect4186"
     style="fill:#4aaee8;fill-opacity:1;stroke:none;stroke-width:3.9848628" />
  <path
     style="fill:#70bdf2;fill-opacity:1;stroke:none;stroke-width:35.91803741"
     d="m 69.74336,56.79833 -5.74321,10.20141 9.2652,-7.14738 C 72.35206,58.63561 71.13122,57.6069 69.74329,56.79817 Z"
     id="path4118-3"
     inkscape:connector-curvature="0"
     sodipodi:nodetypes="ccccc"
     inkscape:transform-center-x="-3.2185804"
     inkscape:transform-center-y="-3.5708883" />
  <path
     style="fill:#70bdf2;fill-opacity:1;stroke:none;stroke-width:35.98839188"
     d="m 69.74337,100.95842 -5.74322,10.24143 9.2652,-7.17542 c -0.91329,-1.22152 -2.13413,-2.25426 -3.52204,-3.06617 z"
     id="path4118-3-7"
     inkscape:connector-curvature="0"
     sodipodi:nodetypes="ccccc"
     inkscape:transform-center-x="-3.2185804"
     inkscape:transform-center-y="-3.5708872" />
  <path
     style="font-style:normal;font-variant:normal;font-weight:normal;font-stretch:normal;font-size:11.28888988px;line-height:125%;font-family:'Open Sans';-inkscape-font-specification:'Open Sans';letter-spacing:0px;word-spacing:0px;fill:#ffffff;fill-opacity:1;stroke:none;stroke-width:35.91803741"
     d="m 52.30088,22.80058 c 0,6.46027 5.23928,11.69956 11.69956,11.69956 6.46029,0 11.69958,-5.23929 11.69958,-11.69956 l -1.02408,0 c 0,5.90815 -4.76737,10.67548 -10.6755,10.67548 -5.90812,0 -10.67729,-4.76733 -10.67729,-10.67548 l -1.02227,0 z m 9.2867,0 0,0.43837 1.38879,0 c 2.60312,0 3.87529,0.82999 3.87531,2.48652 -2e-5,1.84962 -1.15036,2.77757 -3.5106,2.77757 -0.59783,0 -1.22823,-0.0699 -1.90081,-0.21919 -0.66636,-0.15587 -1.30924,-0.36488 -1.90083,-0.65757 l 0,1.46245 c 0.5667,0.27363 1.15741,0.47957 1.7553,0.58571 0.60408,0.11028 1.25206,0.14552 1.97449,0.14552 1.66275,0 2.97229,-0.32678 3.8753,-1.02407 0.90302,-0.70369 1.3169,-1.69698 1.31692,-2.99856 0,-0.90914 -0.27557,-1.70504 -0.8049,-2.26553 -0.31761,-0.33626 -0.72163,-0.54735 -1.24325,-0.73122 l -4.82572,0 z m 2.41286,32.499 c -6.46028,0 -11.69956,5.23937 -11.69956,11.69956 0,6.46028 5.23928,11.70137 11.69956,11.70137 6.46029,0 11.69958,-5.24109 11.69958,-11.70137 0,-6.46019 -5.23929,-11.69956 -11.69958,-11.69956 z m 0,0.98993 c 5.90813,0 10.6737,4.80155 10.6737,10.70963 0,5.90816 -4.76557,10.6755 -10.6737,10.6755 -5.90812,0 -10.71142,-4.76734 -10.71142,-10.6755 0,-5.90808 4.8033,-10.70963 10.71142,-10.70963 z m -0.14552,3.69025 c -0.80958,0 -1.58098,0.12731 -2.31584,0.38267 -0.72862,0.24925 -1.37446,0.59473 -1.93496,1.03666 l 0.78513,1.04742 c 0.67878,-0.43579 1.28346,-0.73662 1.81278,-0.8983 0.52935,-0.16002 1.09273,-0.24255 1.69062,-0.24255 0.78466,0 1.40489,0.18978 1.8595,0.56953 0.46082,0.37991 0.6899,0.90362 0.6899,1.57025 0,0.83444 -0.31148,1.48847 -0.93424,1.9619 -0.62277,0.46681 -1.46652,0.70068 -2.53144,0.70068 l -1.36362,0 0,1.33489 1.34565,0 c 2.60312,0 3.90405,0.82819 3.90405,2.48471 0,1.84964 -1.1791,2.77399 -3.53933,2.77399 -0.59786,0 -1.23362,-0.0735 -1.90622,-0.22279 -0.66635,-0.15588 -1.29486,-0.38105 -1.88645,-0.67373 l 0,1.47683 c 0.56671,0.2736 1.14844,0.46339 1.74632,0.56952 0.60408,0.11028 1.26823,0.16888 1.99066,0.16888 1.66274,0 2.94534,-0.35013 3.84834,-1.04743 0.90304,-0.70369 1.35464,-1.70595 1.35465,-3.00754 0,-0.90915 -0.26479,-1.64395 -0.79411,-2.20444 -0.52934,-0.56042 -1.34196,-0.90883 -2.438,-1.04564 l 0,-0.0754 c 0.89676,-0.1868 1.58751,-0.55644 2.0733,-1.11031 0.49193,-0.55427 0.7384,-1.26793 0.73841,-2.13977 -1e-5,-1.05872 -0.36826,-1.89106 -1.10314,-2.4955 -0.73485,-0.61032 -1.7655,-0.91448 -3.09196,-0.91448 z m 0.14552,39.47526 c -6.46028,0 -11.69956,5.25895 -11.69956,11.74448 l 1.02227,0 c 0,-5.93125 4.76917,-10.71681 10.67729,-10.71681 5.90813,0 10.6755,4.78556 10.6755,10.71681 l 1.02408,0 c 0,-6.48553 -5.23929,-11.74448 -11.69958,-11.74448 z m -0.14732,4.69635 0,0.002 c -0.80957,0 -1.60435,0.11014 -2.3392,0.36652 -0.72864,0.25056 -1.34034,0.58426 -1.90081,1.02766 l 0.80307,1.10133 c 0.67883,-0.43784 1.22596,-0.79127 1.75531,-0.954 0.52932,-0.16232 1.15743,-0.22099 1.7553,-0.22099 0.78469,0 1.37433,0.20543 1.82895,0.58749 0.46083,0.38124 0.65756,0.87252 0.65756,1.5415 -1e-5,0.83772 -0.25583,1.50655 -0.87854,1.98168 -0.62277,0.46862 -1.49348,0.73481 -2.55839,0.73481 l -1.38879,0 0,0.88035 4.82572,0 c -0.34774,-0.12325 -0.73123,-0.23796 -1.1696,-0.29291 l 0,-0.0754 c 0.89676,-0.18731 1.56059,-0.54456 2.04634,-1.10134 0.49202,-0.55603 0.73123,-1.25374 0.73123,-2.129 -1e-5,-1.06286 -0.36107,-1.8891 -1.09594,-2.49549 -0.73485,-0.61264 -1.74574,-0.954 -3.07221,-0.954 z"
     id="path4087"
     inkscape:connector-curvature="0" />
</svg>
